<svg width="32" height="40" viewBox="0 0 32 40" fill="none" xmlns="http://www.w3.org/2000/svg">
<rect y="7.69995" width="31.9" height="31.9" rx="4.4" fill="#EBEAEA"/>
<mask id="path-2-outside-1_84_422" maskUnits="userSpaceOnUse" x="4.40039" y="3" width="23" height="30" fill="black">
<rect fill="white" x="4.40039" y="3" width="23" height="30"/>
<path d="M26.2992 24.278H21.9432V32H17.1516V24.278H5.15279V21.3476L17.706 4.082H21.9432V20.1596H26.2992V24.278ZM17.1516 14.1008L17.508 10.7744H17.3496L16.0032 13.6256L11.8848 18.9716L9.90479 20.4764L12.4392 20.1596H17.1516V14.1008Z"/>
</mask>
<path d="M26.2992 24.278H21.9432V32H17.1516V24.278H5.15279V21.3476L17.706 4.082H21.9432V20.1596H26.2992V24.278ZM17.1516 14.1008L17.508 10.7744H17.3496L16.0032 13.6256L11.8848 18.9716L9.90479 20.4764L12.4392 20.1596H17.1516V14.1008Z" fill="#FFA300"/>
<path d="M26.2992 24.278V24.828H26.8492V24.278H26.2992ZM21.9432 24.278V23.728H21.3932V24.278H21.9432ZM21.9432 32V32.55H22.4932V32H21.9432ZM17.1516 32H16.6016V32.55H17.1516V32ZM17.1516 24.278H17.7016V23.728H17.1516V24.278ZM5.15279 24.278H4.60279V24.828H5.15279V24.278ZM5.15279 21.3476L4.70794 21.0242L4.60279 21.1688V21.3476H5.15279ZM17.706 4.082V3.532H17.4259L17.2611 3.75856L17.706 4.082ZM21.9432 4.082H22.4932V3.532H21.9432V4.082ZM21.9432 20.1596H21.3932V20.7096H21.9432V20.1596ZM26.2992 20.1596H26.8492V19.6096H26.2992V20.1596ZM17.1516 14.1008L16.6047 14.0422L16.6016 14.0714V14.1008H17.1516ZM17.508 10.7744L18.0549 10.833L18.1201 10.2244H17.508V10.7744ZM17.3496 10.7744V10.2244H17.0011L16.8523 10.5395L17.3496 10.7744ZM16.0032 13.6256L16.4389 13.9613L16.4752 13.9142L16.5005 13.8605L16.0032 13.6256ZM11.8848 18.9716L12.2176 19.4095L12.2758 19.3652L12.3205 19.3073L11.8848 18.9716ZM9.90479 20.4764L9.572 20.0385L7.94401 21.2758L9.97301 21.0222L9.90479 20.4764ZM12.4392 20.1596V19.6096H12.4049L12.371 19.6138L12.4392 20.1596ZM17.1516 20.1596V20.7096H17.7016V20.1596H17.1516ZM26.2992 23.728H21.9432V24.828H26.2992V23.728ZM21.3932 24.278V32H22.4932V24.278H21.3932ZM21.9432 31.45H17.1516V32.55H21.9432V31.45ZM17.7016 32V24.278H16.6016V32H17.7016ZM17.1516 23.728H5.15279V24.828H17.1516V23.728ZM5.70279 24.278V21.3476H4.60279V24.278H5.70279ZM5.59764 21.671L18.1508 4.40543L17.2611 3.75856L4.70794 21.0242L5.59764 21.671ZM17.706 4.632H21.9432V3.532H17.706V4.632ZM21.3932 4.082V20.1596H22.4932V4.082H21.3932ZM21.9432 20.7096H26.2992V19.6096H21.9432V20.7096ZM25.7492 20.1596V24.278H26.8492V20.1596H25.7492ZM17.6985 14.1594L18.0549 10.833L16.9611 10.7158L16.6047 14.0422L17.6985 14.1594ZM17.508 10.2244H17.3496V11.3244H17.508V10.2244ZM16.8523 10.5395L15.5059 13.3907L16.5005 13.8605L17.8469 11.0093L16.8523 10.5395ZM15.5675 13.2899L11.4491 18.6359L12.3205 19.3073L16.4389 13.9613L15.5675 13.2899ZM11.552 18.5337L9.572 20.0385L10.2376 20.9143L12.2176 19.4095L11.552 18.5337ZM9.97301 21.0222L12.5074 20.7054L12.371 19.6138L9.83657 19.9306L9.97301 21.0222ZM12.4392 20.7096H17.1516V19.6096H12.4392V20.7096ZM17.7016 20.1596V14.1008H16.6016V20.1596H17.7016Z" fill="#FFA300" mask="url(#path-2-outside-1_84_422)"/>
</svg>
