<svg width="32" height="40" viewBox="0 0 32 40" fill="none" xmlns="http://www.w3.org/2000/svg">
<rect y="7.70001" width="31.9" height="31.9" rx="4.4" fill="#EBEAEA"/>
<mask id="path-2-outside-1_84_416" maskUnits="userSpaceOnUse" x="6.40039" y="3" width="18" height="30" fill="black">
<rect fill="white" x="6.40039" y="3" width="18" height="30"/>
<path d="M23.2104 11.0516C23.2104 12.398 22.9596 13.7576 22.458 15.1304C21.9828 16.5032 21.3624 17.8496 20.5968 19.1696C19.8576 20.4896 19.026 21.77 18.102 23.0108C17.2044 24.2252 16.32 25.3472 15.4488 26.3768L13.35 28.0004V28.1984L16.2012 27.644H23.8044V32H7.13279V29.3468C7.76639 28.6868 8.47919 27.9212 9.27119 27.05C10.0632 26.1524 10.8552 25.2152 11.6472 24.2384C12.4656 23.2352 13.2576 22.2056 14.0232 21.1496C14.7888 20.0936 15.4752 19.0376 16.0824 17.9816C16.6896 16.8992 17.1648 15.8564 17.508 14.8532C17.8776 13.85 18.0624 12.8996 18.0624 12.002C18.0624 10.9196 17.7456 10.0352 17.112 9.3488C16.5048 8.636 15.528 8.2796 14.1816 8.2796C13.3368 8.2796 12.4656 8.4644 11.568 8.834C10.6968 9.1772 9.95759 9.626 9.35039 10.1804L7.29119 6.5372C8.32079 5.6924 9.48239 5.0192 10.776 4.5176C12.096 3.9896 13.6404 3.7256 15.4092 3.7256C16.5444 3.7256 17.5872 3.884 18.5376 4.2008C19.488 4.5176 20.3064 4.9796 20.9928 5.5868C21.6792 6.194 22.2204 6.9596 22.6164 7.8836C23.0124 8.7812 23.2104 9.8372 23.2104 11.0516Z"/>
</mask>
<path d="M23.2104 11.0516C23.2104 12.398 22.9596 13.7576 22.458 15.1304C21.9828 16.5032 21.3624 17.8496 20.5968 19.1696C19.8576 20.4896 19.026 21.77 18.102 23.0108C17.2044 24.2252 16.32 25.3472 15.4488 26.3768L13.35 28.0004V28.1984L16.2012 27.644H23.8044V32H7.13279V29.3468C7.76639 28.6868 8.47919 27.9212 9.27119 27.05C10.0632 26.1524 10.8552 25.2152 11.6472 24.2384C12.4656 23.2352 13.2576 22.2056 14.0232 21.1496C14.7888 20.0936 15.4752 19.0376 16.0824 17.9816C16.6896 16.8992 17.1648 15.8564 17.508 14.8532C17.8776 13.85 18.0624 12.8996 18.0624 12.002C18.0624 10.9196 17.7456 10.0352 17.112 9.3488C16.5048 8.636 15.528 8.2796 14.1816 8.2796C13.3368 8.2796 12.4656 8.4644 11.568 8.834C10.6968 9.1772 9.95759 9.626 9.35039 10.1804L7.29119 6.5372C8.32079 5.6924 9.48239 5.0192 10.776 4.5176C12.096 3.9896 13.6404 3.7256 15.4092 3.7256C16.5444 3.7256 17.5872 3.884 18.5376 4.2008C19.488 4.5176 20.3064 4.9796 20.9928 5.5868C21.6792 6.194 22.2204 6.9596 22.6164 7.8836C23.0124 8.7812 23.2104 9.8372 23.2104 11.0516Z" fill="#FFA300"/>
<path d="M22.458 15.1304L21.9413 14.9416L21.9382 14.9505L22.458 15.1304ZM20.5968 19.1696L20.121 18.8936L20.1169 18.9009L20.5968 19.1696ZM18.102 23.0108L17.6609 22.6823L17.6597 22.6839L18.102 23.0108ZM15.4488 26.3768L15.7853 26.8118L15.8312 26.7763L15.8687 26.7321L15.4488 26.3768ZM13.35 28.0004L13.0135 27.5654L12.8 27.7305V28.0004H13.35ZM13.35 28.1984H12.8V28.8656L13.455 28.7383L13.35 28.1984ZM16.2012 27.644V27.094H16.1482L16.0962 27.1041L16.2012 27.644ZM23.8044 27.644H24.3544V27.094H23.8044V27.644ZM23.8044 32V32.55H24.3544V32H23.8044ZM7.13279 32H6.58279V32.55H7.13279V32ZM7.13279 29.3468L6.73603 28.9659L6.58279 29.1255V29.3468H7.13279ZM9.27119 27.05L9.6782 27.42L9.6836 27.4139L9.27119 27.05ZM11.6472 24.2384L11.221 23.8907L11.22 23.892L11.6472 24.2384ZM14.0232 21.1496L13.5779 20.8268L14.0232 21.1496ZM16.0824 17.9816L16.5592 18.2558L16.5621 18.2507L16.0824 17.9816ZM17.508 14.8532L16.9918 14.663L16.9876 14.6752L17.508 14.8532ZM17.112 9.3488L16.6933 9.70545L16.7004 9.7138L16.7078 9.72185L17.112 9.3488ZM11.568 8.834L11.7696 9.34578L11.7774 9.34257L11.568 8.834ZM9.35039 10.1804L8.87158 10.451L9.21133 11.0521L9.72124 10.5866L9.35039 10.1804ZM7.29119 6.5372L6.94232 6.11201L6.58487 6.4053L6.81238 6.80783L7.29119 6.5372ZM10.776 4.5176L10.9748 5.03043L10.9803 5.02826L10.776 4.5176ZM18.5376 4.2008L18.3637 4.72257H18.3637L18.5376 4.2008ZM20.9928 5.5868L21.3572 5.17485L20.9928 5.5868ZM22.6164 7.8836L22.1108 8.10026L22.1132 8.1056L22.6164 7.8836ZM22.6604 11.0516C22.6604 12.3283 22.4228 13.6241 21.9414 14.9416L22.9746 15.3192C23.4964 13.8911 23.7604 12.4677 23.7604 11.0516H22.6604ZM21.9382 14.9505C21.4752 16.2883 20.8698 17.6026 20.121 18.8937L21.0726 19.4455C21.855 18.0965 22.4904 16.7181 22.9777 15.3103L21.9382 14.9505ZM20.1169 18.9009C19.3896 20.1997 18.571 21.4601 17.6609 22.6823L18.5431 23.3393C19.481 22.0799 20.3256 20.7795 21.0767 19.4383L20.1169 18.9009ZM17.6597 22.6839C16.7684 23.8897 15.8915 25.0021 15.0289 26.0215L15.8687 26.7321C16.7485 25.6923 17.6404 24.5607 18.5443 23.3377L17.6597 22.6839ZM15.1123 25.9418L13.0135 27.5654L13.6865 28.4354L15.7853 26.8118L15.1123 25.9418ZM12.8 28.0004V28.1984H13.9V28.0004H12.8ZM13.455 28.7383L16.3062 28.1839L16.0962 27.1041L13.245 27.6585L13.455 28.7383ZM16.2012 28.194H23.8044V27.094H16.2012V28.194ZM23.2544 27.644V32H24.3544V27.644H23.2544ZM23.8044 31.45H7.13279V32.55H23.8044V31.45ZM7.68279 32V29.3468H6.58279V32H7.68279ZM7.52955 29.7277C8.16742 29.0633 8.8837 28.2939 9.67816 27.42L8.86422 26.68C8.07468 27.5485 7.36537 28.3103 6.73603 28.9659L7.52955 29.7277ZM9.6836 27.4139C10.4809 26.5103 11.2778 25.5672 12.0744 24.5848L11.22 23.892C10.4325 24.8632 9.64548 25.7945 8.85878 26.6861L9.6836 27.4139ZM12.0734 24.5861C12.8984 23.5747 13.6968 22.5368 14.4685 21.4724L13.5779 20.8268C12.8184 21.8744 12.0328 22.8957 11.221 23.8907L12.0734 24.5861ZM14.4685 21.4724C15.2446 20.4019 15.9417 19.3297 16.5592 18.2558L15.6056 17.7074C15.0087 18.7455 14.3329 19.7853 13.5779 20.8268L14.4685 21.4724ZM16.5621 18.2507C17.1829 17.144 17.6728 16.0707 18.0284 15.0312L16.9876 14.6752C16.6568 15.6421 16.1963 16.6544 15.6027 17.7125L16.5621 18.2507ZM18.0241 15.0433C18.4119 13.9906 18.6124 12.9756 18.6124 12.002H17.5124C17.5124 12.8236 17.3433 13.7094 16.9919 14.6631L18.0241 15.0433ZM18.6124 12.002C18.6124 10.8048 18.2583 9.77976 17.5161 8.97574L16.7078 9.72185C17.2329 10.2906 17.5124 11.0344 17.5124 12.002H18.6124ZM17.5307 8.99214C16.7796 8.1104 15.6164 7.7296 14.1816 7.7296V8.8296C15.4396 8.8296 16.23 9.1616 16.6933 9.70545L17.5307 8.99214ZM14.1816 7.7296C13.2551 7.7296 12.3128 7.93251 11.3586 8.32542L11.7774 9.34257C12.6184 8.99628 13.4185 8.8296 14.1816 8.8296V7.7296ZM11.3664 8.32227C10.4414 8.68667 9.64263 9.1688 8.97954 9.77423L9.72124 10.5866C10.2725 10.0832 10.9522 9.66772 11.7696 9.34572L11.3664 8.32227ZM9.8292 9.90977L7.77 6.26657L6.81238 6.80783L8.87158 10.451L9.8292 9.90977ZM7.64007 6.96239C8.62275 6.15608 9.73328 5.51181 10.9748 5.0304L10.5772 4.0048C9.2315 4.52658 8.01883 5.22871 6.94232 6.11201L7.64007 6.96239ZM10.9803 5.02826C12.2216 4.53174 13.6939 4.2756 15.4092 4.2756V3.1756C13.5869 3.1756 11.9704 3.44745 10.5717 4.00694L10.9803 5.02826ZM15.4092 4.2756C16.493 4.2756 17.4763 4.42677 18.3637 4.72257L18.7115 3.67902C17.6981 3.34122 16.5957 3.1756 15.4092 3.1756V4.2756ZM18.3637 4.72257C19.2504 5.01816 20.0024 5.44501 20.6284 5.99874L21.3572 5.17485C20.6104 4.51419 19.7256 4.01704 18.7115 3.67902L18.3637 4.72257ZM20.6284 5.99874C21.2482 6.54703 21.7437 7.24364 22.1109 8.10025L23.1219 7.66694C22.697 6.67555 22.1102 5.84097 21.3572 5.17485L20.6284 5.99874ZM22.1132 8.1056C22.4719 8.91871 22.6604 9.89597 22.6604 11.0516H23.7604C23.7604 9.77843 23.5529 8.64368 23.1196 7.6616L22.1132 8.1056Z" fill="#FFA300" mask="url(#path-2-outside-1_84_416)"/>
</svg>
