<svg width="32" height="40" viewBox="0 0 32 40" fill="none" xmlns="http://www.w3.org/2000/svg">
<rect y="7.69995" width="31.9" height="31.9" rx="4.4" fill="#EBEAEA"/>
<mask id="path-2-outside-1_84_419" maskUnits="userSpaceOnUse" x="6.40039" y="3" width="19" height="31" fill="black">
<rect fill="white" x="6.40039" y="3" width="19" height="31"/>
<path d="M13.944 28.1984C15.5808 28.1984 16.8216 27.7628 17.6664 26.8916C18.5376 26.0204 18.9732 24.9644 18.9732 23.7236C18.9732 22.2188 18.5244 21.11 17.6268 20.3972C16.7292 19.6844 15.3168 19.328 13.3896 19.328H10.5384V16.5956L15.33 10.0616L17.5872 8.2796L14.4588 8.636H7.80599V4.28H22.9332V7.0916L17.3496 14.576L15.6072 15.6452V15.8432L17.2704 15.6056C18.1944 15.6848 19.0656 15.896 19.884 16.2392C20.7288 16.5824 21.4548 17.084 22.062 17.744C22.6956 18.3776 23.1972 19.1696 23.5668 20.12C23.9364 21.0704 24.1212 22.166 24.1212 23.4068C24.1212 24.9644 23.8572 26.3108 23.3292 27.446C22.8276 28.5812 22.1148 29.5316 21.1908 30.2972C20.2932 31.0628 19.2372 31.6304 18.0228 32C16.8084 32.3696 15.5016 32.5544 14.1024 32.5544C12.9408 32.5544 11.7396 32.4488 10.4988 32.2376C9.25799 32.0264 8.25479 31.7228 7.48919 31.3268L8.87519 27.05C9.56159 27.3932 10.314 27.6704 11.1324 27.8816C11.9772 28.0928 12.9144 28.1984 13.944 28.1984Z"/>
</mask>
<path d="M13.944 28.1984C15.5808 28.1984 16.8216 27.7628 17.6664 26.8916C18.5376 26.0204 18.9732 24.9644 18.9732 23.7236C18.9732 22.2188 18.5244 21.11 17.6268 20.3972C16.7292 19.6844 15.3168 19.328 13.3896 19.328H10.5384V16.5956L15.33 10.0616L17.5872 8.2796L14.4588 8.636H7.80599V4.28H22.9332V7.0916L17.3496 14.576L15.6072 15.6452V15.8432L17.2704 15.6056C18.1944 15.6848 19.0656 15.896 19.884 16.2392C20.7288 16.5824 21.4548 17.084 22.062 17.744C22.6956 18.3776 23.1972 19.1696 23.5668 20.12C23.9364 21.0704 24.1212 22.166 24.1212 23.4068C24.1212 24.9644 23.8572 26.3108 23.3292 27.446C22.8276 28.5812 22.1148 29.5316 21.1908 30.2972C20.2932 31.0628 19.2372 31.6304 18.0228 32C16.8084 32.3696 15.5016 32.5544 14.1024 32.5544C12.9408 32.5544 11.7396 32.4488 10.4988 32.2376C9.25799 32.0264 8.25479 31.7228 7.48919 31.3268L8.87519 27.05C9.56159 27.3932 10.314 27.6704 11.1324 27.8816C11.9772 28.0928 12.9144 28.1984 13.944 28.1984Z" fill="#FFA300"/>
<path d="M17.6664 26.8916L17.2774 26.5026L17.2715 26.5087L17.6664 26.8916ZM10.5384 19.328H9.98839V19.878H10.5384V19.328ZM10.5384 16.5956L10.0949 16.2703L9.98839 16.4155V16.5956H10.5384ZM15.33 10.0616L14.9892 9.62991L14.9306 9.67616L14.8865 9.73635L15.33 10.0616ZM17.5872 8.2796L17.928 8.71128L19.4439 7.51452L17.5249 7.73313L17.5872 8.2796ZM14.4588 8.636V9.186H14.49L14.521 9.18246L14.4588 8.636ZM7.80599 8.636H7.25599V9.186H7.80599V8.636ZM7.80599 4.28V3.73H7.25599V4.28H7.80599ZM22.9332 4.28H23.4832V3.73H22.9332V4.28ZM22.9332 7.0916L23.374 7.42048L23.4832 7.27415V7.0916H22.9332ZM17.3496 14.576L17.6373 15.0448L17.7273 14.9895L17.7904 14.9049L17.3496 14.576ZM15.6072 15.6452L15.3195 15.1764L15.0572 15.3374V15.6452H15.6072ZM15.6072 15.8432H15.0572V16.4774L15.685 16.3877L15.6072 15.8432ZM17.2704 15.6056L17.3174 15.0576L17.2548 15.0522L17.1926 15.0611L17.2704 15.6056ZM19.884 16.2392L19.6713 16.7464L19.677 16.7488L19.884 16.2392ZM22.062 17.744L21.6572 18.1164L21.665 18.1248L21.6731 18.1329L22.062 17.744ZM23.3292 27.446L22.8304 27.214L22.8261 27.2237L23.3292 27.446ZM21.1908 30.2972L20.8398 29.8736L20.8339 29.8787L21.1908 30.2972ZM10.4988 32.2376L10.5911 31.6954L10.4988 32.2376ZM7.48919 31.3268L6.96598 31.1572L6.82217 31.601L7.23651 31.8153L7.48919 31.3268ZM8.87519 27.05L9.12116 26.5581L8.54914 26.2721L8.35198 26.8804L8.87519 27.05ZM11.1324 27.8816L10.995 28.4142L10.999 28.4152L11.1324 27.8816ZM13.944 28.7484C15.6759 28.7484 17.0807 28.2857 18.0612 27.2745L17.2715 26.5087C16.5625 27.2399 15.4856 27.6484 13.944 27.6484V28.7484ZM18.0553 27.2805C19.0305 26.3053 19.5232 25.1091 19.5232 23.7236H18.4232C18.4232 24.8197 18.0447 25.7355 17.2775 26.5027L18.0553 27.2805ZM19.5232 23.7236C19.5232 22.1077 19.0366 20.8144 17.9688 19.9665L17.2848 20.8279C18.0122 21.4056 18.4232 22.3299 18.4232 23.7236H19.5232ZM17.9688 19.9665C16.9271 19.1392 15.3637 18.778 13.3896 18.778V19.878C15.2698 19.878 16.5313 20.2296 17.2848 20.8279L17.9688 19.9665ZM13.3896 18.778H10.5384V19.878H13.3896V18.778ZM11.0884 19.328V16.5956H9.98839V19.328H11.0884ZM10.9819 16.9208L15.7735 10.3868L14.8865 9.73635L10.0949 16.2703L10.9819 16.9208ZM15.6708 10.4933L17.928 8.71128L17.2464 7.84791L14.9892 9.62991L15.6708 10.4933ZM17.5249 7.73313L14.3965 8.08953L14.521 9.18246L17.6494 8.82606L17.5249 7.73313ZM14.4588 8.086H7.80599V9.186H14.4588V8.086ZM8.35599 8.636V4.28H7.25599V8.636H8.35599ZM7.80599 4.83H22.9332V3.73H7.80599V4.83ZM22.3832 4.28V7.0916H23.4832V4.28H22.3832ZM22.4924 6.76272L16.9088 14.2471L17.7904 14.9049L23.374 7.42048L22.4924 6.76272ZM17.0619 14.1072L15.3195 15.1764L15.8949 16.114L17.6373 15.0448L17.0619 14.1072ZM15.0572 15.6452V15.8432H16.1572V15.6452H15.0572ZM15.685 16.3877L17.3482 16.1501L17.1926 15.0611L15.5294 15.2987L15.685 16.3877ZM17.2234 16.1536C18.093 16.2281 18.908 16.4263 19.6713 16.7464L20.0967 15.732C19.2232 15.3657 18.2958 15.1415 17.3174 15.0576L17.2234 16.1536ZM19.677 16.7488C20.4479 17.0619 21.106 17.5172 21.6572 18.1164L22.4668 17.3716C21.8036 16.6508 21.0097 16.1029 20.091 15.7296L19.677 16.7488ZM21.6731 18.1329C22.2458 18.7056 22.7084 19.4302 23.0542 20.3193L24.0794 19.9207C23.686 18.909 23.1454 18.0496 22.4509 17.3551L21.6731 18.1329ZM23.0542 20.3193C23.3944 21.1941 23.5712 22.2198 23.5712 23.4068H24.6712C24.6712 22.1122 24.4784 20.9467 24.0794 19.9207L23.0542 20.3193ZM23.5712 23.4068C23.5712 24.9033 23.3175 26.167 22.8305 27.214L23.8279 27.678C24.3969 26.4546 24.6712 25.0255 24.6712 23.4068H23.5712ZM22.8261 27.2237C22.3577 28.2837 21.696 29.1644 20.8399 29.8737L21.5417 30.7207C22.5336 29.8988 23.2974 28.8787 23.8323 27.6683L22.8261 27.2237ZM20.8339 29.8787C19.998 30.5917 19.0103 31.1245 17.8627 31.4738L18.1829 32.5262C19.4641 32.1363 20.5884 31.5339 21.5477 30.7157L20.8339 29.8787ZM17.8627 31.4738C16.7052 31.8261 15.4528 32.0044 14.1024 32.0044V33.1044C15.5504 33.1044 16.9116 32.9131 18.1829 32.5262L17.8627 31.4738ZM14.1024 32.0044C12.9742 32.0044 11.8039 31.9018 10.5911 31.6954L10.4065 32.7798C11.6753 32.9958 12.9074 33.1044 14.1024 33.1044V32.0044ZM10.5911 31.6954C9.38291 31.4898 8.43971 31.1992 7.74187 30.8383L7.23651 31.8153C8.06987 32.2464 9.13307 32.563 10.4065 32.7798L10.5911 31.6954ZM8.0124 31.4964L9.3984 27.2196L8.35198 26.8804L6.96598 31.1572L8.0124 31.4964ZM8.62922 27.5419C9.35356 27.9041 10.1428 28.1942 10.995 28.4142L11.2698 27.349C10.4852 27.1466 9.76962 26.8823 9.12116 26.5581L8.62922 27.5419ZM10.999 28.4152C11.8945 28.6391 12.8773 28.7484 13.944 28.7484V27.6484C12.9514 27.6484 12.0599 27.5465 11.2658 27.348L10.999 28.4152Z" fill="#FFA300" mask="url(#path-2-outside-1_84_419)"/>
</svg>
