<svg width="32" height="40" viewBox="0 0 32 40" fill="none" xmlns="http://www.w3.org/2000/svg">
<rect y="7.70001" width="31.9" height="31.9" rx="4.4" fill="#EBEAEA"/>
<mask id="path-2-outside-1_84_413" maskUnits="userSpaceOnUse" x="5.40039" y="3" width="20" height="30" fill="black">
<rect fill="white" x="5.40039" y="3" width="20" height="30"/>
<path d="M8.39999 27.644H13.9044V12.002L14.4984 9.3092L12.5976 11.6456L9.07319 14.0612L6.89519 11.0912L15.924 3.8048H18.8148V27.644H24.2004V32H8.39999V27.644Z"/>
</mask>
<path d="M8.39999 27.644H13.9044V12.002L14.4984 9.3092L12.5976 11.6456L9.07319 14.0612L6.89519 11.0912L15.924 3.8048H18.8148V27.644H24.2004V32H8.39999V27.644Z" fill="#FFA300"/>
<path d="M8.39999 27.644V27.094H7.84999V27.644H8.39999ZM13.9044 27.644V28.194H14.4544V27.644H13.9044ZM13.9044 12.002L13.3673 11.8835L13.3544 11.9421V12.002H13.9044ZM14.4984 9.3092L15.0355 9.42767L14.0718 8.9621L14.4984 9.3092ZM12.5976 11.6456L12.9085 12.0993L12.9741 12.0543L13.0242 11.9927L12.5976 11.6456ZM9.07319 14.0612L8.62967 14.3864L8.94471 14.816L9.38413 14.5149L9.07319 14.0612ZM6.89519 11.0912L6.54978 10.6632L6.14113 10.993L6.45167 11.4164L6.89519 11.0912ZM15.924 3.8048V3.2548H15.7297L15.5786 3.37679L15.924 3.8048ZM18.8148 3.8048H19.3648V3.2548H18.8148V3.8048ZM18.8148 27.644H18.2648V28.194H18.8148V27.644ZM24.2004 27.644H24.7504V27.094H24.2004V27.644ZM24.2004 32V32.55H24.7504V32H24.2004ZM8.39999 32H7.84999V32.55H8.39999V32ZM8.39999 28.194H13.9044V27.094H8.39999V28.194ZM14.4544 27.644V12.002H13.3544V27.644H14.4544ZM14.4415 12.1205L15.0355 9.42767L13.9613 9.19072L13.3673 11.8835L14.4415 12.1205ZM14.0718 8.9621L12.171 11.2985L13.0242 11.9927L14.925 9.6563L14.0718 8.9621ZM12.2867 11.1919L8.76225 13.6075L9.38413 14.5149L12.9085 12.0993L12.2867 11.1919ZM9.51671 13.7359L7.33871 10.7659L6.45167 11.4164L8.62967 14.3864L9.51671 13.7359ZM7.2406 11.5192L16.2694 4.23281L15.5786 3.37679L6.54978 10.6632L7.2406 11.5192ZM15.924 4.3548H18.8148V3.2548H15.924V4.3548ZM18.2648 3.8048V27.644H19.3648V3.8048H18.2648ZM18.8148 28.194H24.2004V27.094H18.8148V28.194ZM23.6504 27.644V32H24.7504V27.644H23.6504ZM24.2004 31.45H8.39999V32.55H24.2004V31.45ZM8.94999 32V27.644H7.84999V32H8.94999Z" fill="#FFA300" mask="url(#path-2-outside-1_84_413)"/>
</svg>
