<svg width="46" height="46" viewBox="0 0 46 46" fill="none" xmlns="http://www.w3.org/2000/svg">
<path d="M33.0098 23.7544V35.4476C33.0098 36.0652 32.8061 36.6367 32.4624 37.0967C31.9587 37.7706 31.156 38.2065 30.2509 38.2065H6.6311C5.7249 38.2065 4.92105 37.7706 4.4185 37.0967C4.3817 37.0473 4.34605 36.9967 4.3127 36.9438C4.02379 36.4983 3.87039 35.9786 3.8711 35.4476V11.8276C3.8711 10.3027 5.1062 9.06891 6.6311 9.06891H30.2509C31.2698 9.06891 32.1601 9.62091 32.6372 10.4432L28.8399 14.2415L20.4357 22.6468L14.3142 16.5255C13.2332 15.4445 11.0724 15.4445 9.9937 16.5255L7.4729 19.0452C7.08995 19.4281 6.8427 19.9468 6.7323 20.5044C6.5276 21.5198 6.77485 22.6687 7.4729 23.3669L18.2748 34.1688C19.3547 35.2487 21.5144 35.2487 22.5954 34.1688L25.1162 31.648L33.0098 23.7544Z" fill="#EBEAEA"/>
<path d="M41.3179 15.4444L33.0092 23.7544L25.1156 31.648L22.5948 34.1688C21.5138 35.2486 19.3541 35.2486 18.2742 34.1688L7.47226 23.3668C6.77421 22.6688 6.52696 21.5198 6.73166 20.5044C6.84206 19.9466 7.08931 19.4281 7.47226 19.0451L9.99306 16.5255C11.0718 15.4445 13.2326 15.4445 14.3136 16.5255L20.4351 22.6468L28.8393 14.2415L32.6366 10.4431L34.4766 8.6043C35.5576 7.5233 37.7184 7.5233 38.7971 8.6043L41.3179 11.1239C41.6123 11.4194 41.8274 11.7944 41.9608 12.206C42.3184 13.3031 42.1034 14.6589 41.3179 15.4444Z" fill="#FFA400"/>
</svg>
